<svg width="93" height="93" viewBox="0 0 93 93" fill="none" xmlns="http://www.w3.org/2000/svg">
<rect x="0.503418" y="0.858887" width="92" height="92" rx="25" fill="#FFF0DA"/>
<g clip-path="url(#clip0_149_511)">
<path d="M43.0151 65.2847H48.9917C49.5417 65.2847 49.9878 64.8387 49.9878 64.2886V59.3081H54.9683C55.5183 59.3081 55.9644 58.8622 55.9644 58.312V52.3354C55.9644 51.7853 55.5183 51.3394 54.9683 51.3394H49.9878V46.3589C49.9878 45.8087 49.5417 45.3628 48.9917 45.3628H43.0151C42.465 45.3628 42.019 45.8087 42.019 46.3589V51.3394H37.0386C36.4884 51.3394 36.0425 51.7853 36.0425 52.3354V58.312C36.0425 58.8622 36.4884 59.3081 37.0386 59.3081H42.019V64.2886C42.019 64.8387 42.465 65.2847 43.0151 65.2847ZM38.0347 57.3159V53.3315H43.0151C43.5653 53.3315 44.0112 52.8856 44.0112 52.3354V47.355H47.9956V52.3354C47.9956 52.8856 48.4417 53.3315 48.9917 53.3315H53.9722V57.3159H48.9917C48.4417 57.3159 47.9956 57.7619 47.9956 58.312V63.2925H44.0112V58.312C44.0112 57.7619 43.5653 57.3159 43.0151 57.3159H38.0347Z" fill="#7C6645"/>
<path d="M46.0034 71.8589C46.5535 71.8589 46.9995 71.4129 46.9995 70.8628C46.9995 70.3127 46.5535 69.8667 46.0034 69.8667C45.4533 69.8667 45.0073 70.3127 45.0073 70.8628C45.0073 71.4129 45.4533 71.8589 46.0034 71.8589Z" fill="#7C6645"/>
<path d="M24.4878 71.8589H41.521C42.0711 71.8589 42.5171 71.4129 42.5171 70.8628C42.5171 70.3127 42.0711 69.8667 41.521 69.8667H24.4878C23.3893 69.8667 22.4956 68.973 22.4956 67.8745V41.3784H26.48V46.3589C26.48 46.909 26.9259 47.355 27.4761 47.355H33.4526C34.0028 47.355 34.4487 46.909 34.4487 46.3589V41.3784H57.5581V46.3589C57.5581 46.909 58.0042 47.355 58.5542 47.355H64.5308C65.0808 47.355 65.5269 46.909 65.5269 46.3589V41.3784H69.5112V67.8745C69.5112 68.973 68.6175 69.8667 67.519 69.8667H50.4858C49.9358 69.8667 49.4897 70.3127 49.4897 70.8628C49.4897 71.4129 49.9358 71.8589 50.4858 71.8589H67.519C69.716 71.8589 71.5034 70.0715 71.5034 67.8745V34.4058C71.5034 32.2088 69.716 30.4214 67.519 30.4214H58.9526V24.8433C58.9526 22.6463 57.1652 20.8589 54.9683 20.8589H37.0386C34.8416 20.8589 33.0542 22.6463 33.0542 24.8433V30.4214H24.4878C22.2908 30.4214 20.5034 32.2088 20.5034 34.4058V67.8745C20.5034 70.0715 22.2908 71.8589 24.4878 71.8589ZM32.4565 45.3628H28.4722V41.3784H32.4565V45.3628ZM63.5347 45.3628H59.5503V41.3784H63.5347V45.3628ZM35.0464 24.8433C35.0464 23.7448 35.9401 22.8511 37.0386 22.8511H54.9683C56.0668 22.8511 56.9604 23.7448 56.9604 24.8433V30.4214H35.0464V24.8433ZM24.4878 32.4136H67.519C68.6175 32.4136 69.5112 33.3073 69.5112 34.4058V39.3862H22.4956V34.4058C22.4956 33.3073 23.3893 32.4136 24.4878 32.4136Z" fill="#7C6645"/>
</g>
<defs>
<clipPath id="clip0_149_511">
<rect width="51" height="51" fill="white" transform="translate(20.5034 20.8589)"/>
</clipPath>
</defs>
</svg>
