<svg width="12" height="13" viewBox="0 0 12 13" fill="none" xmlns="http://www.w3.org/2000/svg">
<path d="M0.924045 11.6262L1.10103 11.8032L1.27781 11.626L5.86843 7.0245L10.4591 11.626L10.6358 11.8032L10.8128 11.6262L11.0338 11.4053L11.2103 11.2287L11.034 11.052L6.44216 6.44938L11.034 1.84666L11.2105 1.66976L11.0336 1.4932L10.8127 1.27256L10.6357 1.09583L10.4591 1.27289L5.86843 5.87429L1.27781 1.27289L1.10115 1.09583L0.924168 1.27256L0.703229 1.4932L0.526417 1.66976L0.702897 1.84666L5.2947 6.44938L0.702899 11.052L0.526536 11.2287L0.703106 11.4053L0.924045 11.6262Z" fill="#FF0202" stroke="#FF0202" stroke-width="0.5"/>
</svg>
