<svg width="21" height="21" viewBox="0 0 21 21" fill="none" xmlns="http://www.w3.org/2000/svg">
<g clip-path="url(#clip0_43_226)">
<path d="M19.0361 13.7674C17.8116 13.7674 16.6093 13.5758 15.47 13.1993C14.9117 13.0089 14.2254 13.1836 13.8847 13.5336L11.6359 15.2312C9.0279 13.839 7.42144 12.2331 6.04832 9.6447L7.69597 7.45449C8.12405 7.02699 8.27759 6.40251 8.09363 5.81658C7.7155 4.67126 7.52342 3.46954 7.52342 2.24454C7.52347 1.3596 6.80353 0.639648 5.91863 0.639648H2.24571C1.36082 0.639648 0.640869 1.3596 0.640869 2.24449C0.640869 12.3877 8.89285 20.6396 19.0361 20.6396C19.921 20.6396 20.6409 19.9197 20.6409 19.0348V15.3721C20.6409 14.4873 19.9209 13.7674 19.0361 13.7674Z" fill="white"/>
</g>
<defs>
<clipPath id="clip0_43_226">
<rect width="20" height="20" fill="white" transform="translate(0.640869 0.639648)"/>
</clipPath>
</defs>
</svg>
