<svg width="76" height="82" viewBox="0 0 76 82" fill="none" xmlns="http://www.w3.org/2000/svg">
<g filter="url(#filter0_d_70_104)">
<path d="M15 19.5161C15 15.6501 18.134 12.5161 22 12.5161H54C57.866 12.5161 61 15.6501 61 19.5161V52.6805C61 56.5465 57.866 59.6805 54 59.6805H37.2512C35.8256 59.6805 34.4745 60.3172 33.5671 61.4168L33.1633 61.9061C31.334 64.1227 27.8876 63.957 26.2794 61.5752C25.4794 60.3905 24.1433 59.6805 22.7138 59.6805H21.53C17.9236 59.6805 15 56.7569 15 53.1505V19.5161Z" fill="black"/>
</g>
<g clip-path="url(#clip0_70_104)">
<path d="M42.311 36.7032C41.4535 34.644 39.6561 33.193 37.5027 32.822C35.3494 32.451 33.1881 33.22 31.7215 34.8787L28.187 38.8756C27.6005 39.5386 27.2454 40.3603 27.16 41.2511C27.0746 42.1422 27.2671 43.0187 27.7164 43.7867C28.1663 44.5541 28.8308 45.1402 29.6382 45.4816C30.4456 45.823 31.32 45.8873 32.1669 45.6678L32.2236 45.6528C34.3515 45.1182 36.6176 45.517 38.4505 46.7503C38.9233 47.0684 39.4452 47.278 39.991 47.372C40.2877 47.4232 40.5919 47.44 40.899 47.4219C41.7709 47.37 42.5857 47.0388 43.2557 46.4641C43.9253 45.8896 44.3869 45.1255 44.5904 44.2546C44.7939 43.3837 44.7202 42.4883 44.3774 41.6648L42.311 36.7032Z" fill="#F4CB38"/>
<path d="M29.6763 34.5202C30.5632 34.3357 31.3089 33.7564 31.7761 32.889C32.2207 32.0636 32.3584 31.0689 32.1636 30.0881C31.9684 29.1078 31.4622 28.2478 30.7382 27.6662C29.9776 27.0555 29.0704 26.8211 28.1848 27.0065C26.4034 27.3779 25.288 29.3657 25.6985 31.4389C26.0274 33.0893 27.2265 34.302 28.6009 34.5388C28.9518 34.5992 29.3142 34.596 29.6763 34.5202Z" fill="#F4CB38"/>
<path d="M35.6852 31.947C37.7771 32.3074 39.8048 30.6126 40.2053 28.169C40.6058 25.7248 39.2298 23.4431 37.138 23.0827C35.0463 22.7224 33.0187 24.4176 32.6182 26.8619C32.2177 29.3055 33.5936 31.5867 35.6852 31.947Z" fill="#F4CB38"/>
<path d="M42.0586 34.1648L42.0588 34.1648C42.3626 34.3298 42.6823 34.4387 43.0092 34.495C44.5348 34.7578 46.2081 33.8755 47.0621 32.2236C47.5539 31.2727 47.7069 30.2041 47.493 29.2148C47.2693 28.1791 46.6755 27.353 45.8208 26.8885C44.9659 26.424 43.9657 26.384 43.0042 26.7755C42.0856 27.1495 41.3092 27.8793 40.8178 28.8302C39.7809 30.8362 40.3375 33.2293 42.0586 34.1648Z" fill="#F4CB38"/>
<path d="M50.1327 35.0239L50.1322 35.0232C48.8686 33.6821 46.6336 33.7839 45.1493 35.2508C43.6662 36.7187 43.4858 39.0045 44.7471 40.3461C45.207 40.8356 45.7964 41.1333 46.4317 41.2427C47.5389 41.4335 48.7858 41.0525 49.7305 40.1197C51.2135 38.6518 51.394 36.3659 50.1327 35.0239Z" fill="#F4CB38"/>
</g>
<defs>
<filter id="filter0_d_70_104" x="0" y="0.516113" width="76" height="80.9541" filterUnits="userSpaceOnUse" color-interpolation-filters="sRGB">
<feFlood flood-opacity="0" result="BackgroundImageFix"/>
<feColorMatrix in="SourceAlpha" type="matrix" values="0 0 0 0 0 0 0 0 0 0 0 0 0 0 0 0 0 0 127 0" result="hardAlpha"/>
<feOffset dy="3"/>
<feGaussianBlur stdDeviation="7.5"/>
<feColorMatrix type="matrix" values="0 0 0 0 1 0 0 0 0 1 0 0 0 0 1 0 0 0 0.33 0"/>
<feBlend mode="normal" in2="BackgroundImageFix" result="effect1_dropShadow_70_104"/>
<feBlend mode="normal" in="SourceGraphic" in2="effect1_dropShadow_70_104" result="shape"/>
</filter>
<clipPath id="clip0_70_104">
<rect width="26.2079" height="26.8344" fill="white" transform="matrix(0.985481 0.169786 -0.161728 0.986835 27.3398 19.6929)"/>
</clipPath>
</defs>
</svg>
