<svg width="46" height="53" viewBox="0 0 46 53" fill="none" xmlns="http://www.w3.org/2000/svg">
<path d="M0 10C0 4.47716 4.47715 0 10 0H36C41.5228 0 46 4.47715 46 10V34.6457C46 40.1685 41.5228 44.6457 36 44.6457H20.942C19.8714 44.6457 18.9104 45.3021 18.521 46.2994V46.2994C17.6601 48.5043 14.5399 48.5043 13.679 46.2994V46.2994C13.2896 45.3021 12.3286 44.6457 11.258 44.6457H7.74375C3.467 44.6457 0 41.1787 0 36.9019V10Z" fill="black"/>
<path d="M27.3025 24.9214C26.4449 22.9131 24.6475 21.4979 22.4942 21.1361C20.3408 20.7743 18.1796 21.5242 16.713 23.142L13.1784 27.0402C12.592 27.6869 12.2369 28.4883 12.1515 29.3571C12.066 30.2261 12.2585 31.0811 12.7079 31.8301C13.1577 32.5785 13.8223 33.1501 14.6296 33.4831C15.437 33.8162 16.3115 33.8788 17.1583 33.6647L17.2151 33.6501C19.343 33.1288 21.6091 33.5177 23.442 34.7206C23.9148 35.0308 24.4366 35.2352 24.9824 35.3269C25.2792 35.3768 25.5834 35.3932 25.8905 35.3755C26.7623 35.3249 27.5772 35.0019 28.2472 34.4414C28.9168 33.8811 29.3783 33.1358 29.5818 32.2864C29.7853 31.437 29.7116 30.5637 29.3689 29.7605L27.3025 24.9214Z" fill="#F4CB38"/>
<path d="M14.668 22.7925C15.5549 22.6125 16.3006 22.0475 16.7678 21.2015C17.2124 20.3965 17.3501 19.4264 17.1553 18.4698C16.9601 17.5137 16.4539 16.6749 15.7299 16.1077C14.9693 15.5121 14.0621 15.2834 13.1765 15.4643C11.3951 15.8265 10.2797 17.7653 10.6902 19.7872C11.0191 21.3969 12.2182 22.5796 13.5926 22.8106C13.9435 22.8695 14.3059 22.8664 14.668 22.7925Z" fill="#F4CB38"/>
<path d="M20.6769 20.2829C22.7688 20.6344 24.7965 18.9814 25.197 16.5981C25.5975 14.2142 24.2215 11.9889 22.1297 11.6374C20.038 11.2859 18.0104 12.9393 17.6099 15.3232C17.2094 17.7065 18.5853 19.9314 20.6769 20.2829Z" fill="#F4CB38"/>
<path d="M27.0503 22.4456L27.0505 22.4456C27.3543 22.6065 27.674 22.7127 28.0009 22.7676C29.5265 23.024 31.1998 22.1634 32.0538 20.5523C32.5456 19.625 32.6986 18.5827 32.4847 17.6178C32.261 16.6077 31.6672 15.802 30.8125 15.349C29.9576 14.8959 28.9574 14.8569 27.9959 15.2388C27.0773 15.6035 26.3008 16.3153 25.8095 17.2428C24.7726 19.1992 25.3292 21.5332 27.0503 22.4456V22.4456Z" fill="#F4CB38"/>
<path d="M35.1242 23.2837L35.1237 23.283C33.8602 21.975 31.6251 22.0743 30.1409 23.505C28.6577 24.9366 28.4774 27.166 29.7386 28.4745C30.1986 28.9519 30.788 29.2422 31.4233 29.349C32.5305 29.535 33.7774 29.1635 34.7221 28.2536C36.2051 26.822 36.3856 24.5926 35.1242 23.2837V23.2837Z" fill="#F4CB38"/>
</svg>
