<svg width="22" height="27" viewBox="0 0 22 27" fill="none" xmlns="http://www.w3.org/2000/svg">
<path d="M10.6886 0.518066C4.79486 0.518066 0 4.94277 0 10.3814C0 12.6247 1.67569 15.9052 4.98041 20.1317C7.36961 23.1873 9.72026 25.6015 9.81913 25.7028L10.6887 26.5933L11.5583 25.7028C11.6571 25.6016 14.0078 23.1873 16.397 20.1317C19.7017 15.9052 21.3774 12.6248 21.3774 10.3814C21.3773 4.94277 16.5824 0.518066 10.6886 0.518066ZM10.6886 23.3406C7.74431 20.1643 2.3409 13.658 2.3409 10.3814C2.3409 6.13388 6.08563 2.67822 10.6886 2.67822C15.2916 2.67822 19.0363 6.13388 19.0363 10.3814C19.0364 13.658 13.6329 20.1643 10.6886 23.3406Z" fill="white"/>
<path d="M10.6886 13.9599C12.8302 13.9599 14.5663 12.3579 14.5663 10.3816C14.5663 8.40531 12.8302 6.80322 10.6886 6.80322C8.54693 6.80322 6.81079 8.40531 6.81079 10.3816C6.81079 12.3579 8.54693 13.9599 10.6886 13.9599Z" fill="white"/>
</svg>
