<svg width="28" height="23" viewBox="0 0 28 23" fill="none" xmlns="http://www.w3.org/2000/svg">
<path d="M0.36084 20.1229C2.83745 21.7111 5.7791 22.6374 8.93967 22.6374C19.2337 22.6374 24.8627 14.1099 24.8627 6.71416C24.8627 6.47177 24.8572 6.23034 24.8466 5.9902C25.9402 5.20121 26.889 4.21555 27.6393 3.09324C26.6356 3.53836 25.557 3.83937 24.4249 3.97464C25.5805 3.28185 26.4679 2.18535 26.8856 0.878414C25.8042 1.51959 24.6064 1.98557 23.3318 2.23636C22.311 1.14869 20.8565 0.469238 19.2467 0.469238C16.1562 0.469238 13.6502 2.97495 13.6502 6.06546C13.6502 6.50408 13.7 6.93118 13.7955 7.34096C9.1443 7.10732 5.0205 4.8795 2.26037 1.49335C1.77853 2.3201 1.50255 3.28133 1.50255 4.30709C1.50255 6.24852 2.49028 7.96161 3.99206 8.96519C3.07456 8.93609 2.21161 8.68418 1.45726 8.26513C1.45674 8.2886 1.45674 8.31198 1.45674 8.33562C1.45674 11.0471 3.38597 13.3089 5.94606 13.8232C5.47644 13.9508 4.98197 14.0196 4.47156 14.0196C4.11096 14.0196 3.76033 13.9844 3.41844 13.9189C4.13071 16.1423 6.19763 17.7604 8.64662 17.8054C6.73116 19.3066 4.31811 20.2014 1.69609 20.2014C1.24405 20.2014 0.798679 20.1749 0.36084 20.1229Z" fill="white"/>
</svg>
