<svg width="25" height="24" viewBox="0 0 25 24" fill="none" xmlns="http://www.w3.org/2000/svg">
<g clip-path="url(#clip0_67_66)">
<path d="M23.9539 1.39364C23.2215 0.660619 22.035 0.660243 21.3022 1.39378L17.0696 5.63416C15.7981 4.67909 13.9646 4.76197 12.7845 5.94259L9.10654 9.62015C8.83912 9.55115 8.56383 9.5159 8.2846 9.5159C6.62971 9.5159 5.25709 10.7472 5.03486 12.3419C4.94692 12.3329 4.85824 12.3284 4.76904 12.3284C3.34748 12.3284 2.19096 13.4849 2.19096 14.9064C2.19096 14.985 2.19476 15.0632 2.20174 15.1408H0.972184C0.819702 15.1408 0.676783 15.215 0.588941 15.3396C0.501145 15.4642 0.479443 15.6238 0.530817 15.7674L3.06202 22.8454C3.12872 23.0318 3.30535 23.1563 3.50339 23.1563H6.87833C7.13717 23.1563 7.34707 22.9464 7.34707 22.6875C7.34707 22.1706 7.76762 21.7501 8.28455 21.7501H10.3939C10.6528 21.7501 10.8627 21.5402 10.8627 21.2813C10.8627 21.0224 10.6528 20.8126 10.3939 20.8126H8.28455C7.41251 20.8126 6.67757 21.411 6.46893 22.2188H3.83357L1.63761 16.0783H23.3688L21.1728 22.2188H18.5375C18.3288 21.411 17.5939 20.8126 16.7219 20.8126H14.6126C14.3537 20.8126 14.1438 21.0224 14.1438 21.2813C14.1438 21.5402 14.3537 21.7501 14.6126 21.7501H16.7219C17.2388 21.7501 17.6594 22.1706 17.6594 22.6875C17.6594 22.9464 17.8693 23.1563 18.1281 23.1563H21.5031C21.7011 23.1563 21.8777 23.0318 21.9444 22.8454L24.4756 15.7674C24.527 15.6238 24.5053 15.4642 24.4175 15.3396C24.3297 15.215 24.1868 15.1408 24.0343 15.1408H22.7815C22.5578 13.5843 21.2379 12.3779 19.6316 12.3308C20.6022 11.1506 20.6115 9.47053 19.7213 8.2855L23.9536 4.04498C24.6862 3.31285 24.6871 2.12623 23.9539 1.39364ZM21.8309 15.1408H3.14527C3.1343 15.0636 3.1284 14.9854 3.1284 14.9064C3.1284 14.0018 3.86437 13.2658 4.76899 13.2658C4.95757 13.2658 5.14216 13.2974 5.31751 13.3597C5.62815 13.4701 5.95453 13.2329 5.94291 12.9015C5.89369 11.5163 6.99167 10.4534 8.28455 10.4534C9.59145 10.4534 10.6283 11.516 10.6283 12.7971C10.6283 13.056 10.8382 13.2658 11.097 13.2658C11.3558 13.2658 11.5657 13.056 11.5657 12.7971C11.5657 12.4896 11.5236 12.1894 11.4412 11.8996C11.5998 11.8644 11.7643 11.852 11.9325 11.8647C12.3693 11.8995 12.7667 12.1035 13.0515 12.439C13.2239 12.6421 13.5308 12.6608 13.7266 12.4802C14.1605 12.08 14.7248 11.8596 15.3156 11.8596C16.3381 11.8596 17.2091 12.5181 17.5278 13.427C17.6291 13.7157 17.9762 13.8318 18.2307 13.6615C18.625 13.3978 19.0784 13.2657 19.5343 13.2657C20.6662 13.2658 21.6131 14.0723 21.8309 15.1408ZM23.2905 3.38223L18.7502 7.93137C18.5675 8.11446 18.5676 8.41098 18.7506 8.59393C19.6664 9.50976 19.6667 10.9922 18.7505 11.9084L18.1339 12.5253C17.8062 11.9776 17.3239 11.535 16.7524 11.255L17.4246 10.5828C17.6077 10.3998 17.6077 10.103 17.4246 9.91986C17.2415 9.73682 16.9448 9.73682 16.7617 9.91986L15.7321 10.9495C15.5941 10.932 15.4549 10.9221 15.3157 10.9221C14.6393 10.9221 13.9877 11.1286 13.4405 11.5102C13.2674 11.3668 13.0774 11.2479 12.8749 11.1552L15.4362 8.59389C15.6192 8.41084 15.6192 8.11403 15.4362 7.93099C15.2531 7.74795 14.9564 7.74795 14.7732 7.93099L11.7816 10.9226C11.5336 10.9244 11.2865 10.9618 11.0503 11.0334C10.7891 10.6257 10.4395 10.2792 10.0313 10.0211L13.4473 6.60539C14.3632 5.68919 15.8455 5.68905 16.7616 6.60539C16.9447 6.78867 17.2418 6.78848 17.4248 6.60515L21.9653 2.0562C22.3267 1.69457 22.92 1.68533 23.2908 2.05648C23.6546 2.41995 23.66 3.01295 23.2905 3.38223Z" fill="black"/>
<path d="M12.5032 21.75C12.7621 21.75 12.9719 21.5401 12.9719 21.2812C12.9719 21.0224 12.7621 20.8125 12.5032 20.8125C12.2443 20.8125 12.0344 21.0224 12.0344 21.2812C12.0344 21.5401 12.2443 21.75 12.5032 21.75Z" fill="black"/>
</g>
<defs>
<clipPath id="clip0_67_66">
<rect width="24" height="24" fill="white" transform="translate(0.503418)"/>
</clipPath>
</defs>
</svg>
