<svg width="10" height="10" viewBox="0 0 10 10" fill="none" xmlns="http://www.w3.org/2000/svg">
<g clip-path="url(#clip0_51_196)">
<path d="M0.0441622 10.1768L0.221149 10.3538L0.397925 10.1766L4.98855 5.57503L9.57918 10.1766L9.75595 10.3538L9.93294 10.1768L10.1539 9.95584L10.3304 9.77927L10.1541 9.60249L5.56228 4.99992L10.1541 0.397199L10.3306 0.2203L10.1538 0.0437335L9.93282 -0.176899L9.75583 -0.353638L9.57918 -0.176569L4.98855 4.42483L0.397922 -0.176569L0.221269 -0.353638L0.0442847 -0.176899L-0.176654 0.0437334L-0.353466 0.2203L-0.176986 0.397199L4.41482 4.99992L-0.176984 9.60249L-0.353346 9.77927L-0.176777 9.95584L0.0441622 10.1768Z" fill="#FF0202" stroke="#FF0202" stroke-width="0.5"/>
</g>
<defs>
<clipPath id="clip0_51_196">
<rect width="10" height="10" fill="white"/>
</clipPath>
</defs>
</svg>
