<svg width="18" height="17" viewBox="0 0 18 17" fill="none" xmlns="http://www.w3.org/2000/svg">
<path d="M15.8176 11.1586C14.7768 11.1586 13.7548 10.9958 12.7864 10.6757C12.3118 10.5139 11.7285 10.6624 11.4389 10.9598L9.52739 12.4028C7.31062 11.2195 5.94513 9.85442 4.77797 7.65429L6.17848 5.79262C6.54234 5.42924 6.67285 4.89844 6.51649 4.40039C6.19508 3.42687 6.03181 2.40541 6.03181 1.36416C6.03185 0.611956 5.4199 0 4.66774 0H1.54576C0.793596 0 0.181641 0.611956 0.181641 1.36412C0.181641 9.98586 7.19582 17 15.8176 17C16.5697 17 17.1817 16.388 17.1817 15.6359V12.5226C17.1816 11.7705 16.5697 11.1586 15.8176 11.1586Z" fill="black"/>
</svg>
