<svg width="92" height="92" viewBox="0 0 92 92" fill="none" xmlns="http://www.w3.org/2000/svg">
<rect width="91.0054" height="92" rx="25" fill="#DAFFE0"/>
<mask id="mask0_41_101" style="mask-type:alpha" maskUnits="userSpaceOnUse" x="13" y="16" width="57" height="56">
<rect x="13.8486" y="16" width="55.3946" height="56" fill="#C4C4C4"/>
</mask>
<g mask="url(#mask0_41_101)">
</g>
<g clip-path="url(#clip0_41_101)">
<path d="M68.4208 28.4414C67.7552 27.6425 66.7808 27.1842 65.7474 27.1842H63.2673C62.1662 25.2248 60.1071 23.9941 57.8384 23.9941H57.3254V20.179C57.3254 19.5749 56.8411 19.0853 56.2435 19.0853C52.2106 19.0853 48.9295 22.4022 48.9295 26.4792V29.8971C48.9295 32.2759 47.6305 34.4314 45.5393 35.5222L42.0068 37.3648C41.4758 37.6419 41.2674 38.3015 41.5413 38.8383C41.7334 39.2147 42.1116 39.4308 42.5037 39.4308C42.6708 39.4308 42.8403 39.3917 42.9989 39.3089L46.5314 37.4662C49.3454 35.9984 51.0934 33.0981 51.0934 29.8972V26.4791C51.0934 23.9834 52.8396 21.8922 55.1616 21.3883V25.0878C55.1616 25.6919 55.6461 26.1816 56.2435 26.1816H57.8384C59.4834 26.1816 60.9598 27.1715 61.5997 28.7036C61.7689 29.1086 62.1615 29.3718 62.5964 29.3718H65.7474C66.141 29.3718 66.5123 29.5464 66.7659 29.8508C67.0195 30.1552 67.1266 30.5546 67.0597 30.9469L66.6593 33.2949C66.4051 34.7843 65.1358 35.8652 63.6409 35.8652H58.8241C58.8128 35.8652 58.8019 35.8665 58.7906 35.8669C58.7793 35.8666 58.7684 35.8652 58.7571 35.8652C58.1596 35.8652 57.6751 36.3548 57.6751 36.9589V42.3069C57.6751 46.1757 56.9364 49.9478 55.4796 53.5186C55.3898 53.7386 55.3735 53.9822 55.4329 54.2124L58.0942 64.5012C58.1407 64.6809 58.2316 64.8456 58.3585 64.9799L59.3094 65.9866C59.4813 66.1686 59.4365 66.3624 59.3944 66.4616C59.3523 66.5609 59.2447 66.7276 58.9957 66.7276H55.3914L50.7417 54.5484V49.4904C50.7417 48.8864 50.2572 48.3967 49.6597 48.3967C49.0622 48.3967 48.5778 48.8864 48.5778 49.4904V54.7522C48.5778 54.8868 48.6023 55.0204 48.6504 55.146L53.072 66.7274H49.266C48.7438 63.3057 45.8111 60.6775 42.2824 60.6775H41.0613L40.5783 57.7804C40.0621 54.684 37.7653 52.2623 34.7268 51.6109L32.6802 51.1721C32.0961 51.0469 31.5213 51.4242 31.3973 52.0151C31.2733 52.606 31.6467 53.1866 32.2313 53.3119L34.2779 53.7507C36.4414 54.2146 38.0769 55.939 38.4444 58.1438L38.8668 60.6774H32.2007C31.6032 60.6774 31.1187 61.1671 31.1187 61.7712C31.1187 62.3752 31.6032 62.8649 32.2007 62.8649H42.2824C44.6141 62.8649 46.5708 64.5189 47.0646 66.7273H32.0239C26.611 66.7273 22.2072 62.2754 22.2072 56.8033C22.2072 52.7018 24.4469 48.9857 28.0523 47.1051L34.3479 43.8212C34.8788 43.5442 35.0872 42.8845 34.8132 42.3476C34.5393 41.8108 33.8863 41.6001 33.3556 41.8772L27.0601 45.1611C25.3329 46.0621 23.8678 47.3146 22.7295 48.8066C22.61 48.2333 22.5492 47.6454 22.5492 47.0457C22.5492 43.9917 24.186 41.161 26.8209 39.6584C27.5346 39.2514 27.8732 38.436 27.6637 37.6293C27.4431 36.78 26.6884 36.1859 25.8255 36.1791C25.8205 36.179 25.8157 36.1783 25.8108 36.1783C25.8076 36.1783 25.8044 36.1783 25.8011 36.1784C25.7998 36.1784 25.7986 36.1786 25.7973 36.1786C19.3372 36.1859 13.9793 41.5646 13.851 48.1752C13.7614 52.7879 16.2753 57.0855 20.2868 59.24C21.4054 64.7544 26.2431 68.9148 32.0239 68.9148H58.9958C60.0531 68.9148 60.9681 68.3044 61.3839 67.3218C61.7998 66.3391 61.6045 65.2485 60.8743 64.4755L60.1167 63.6736L57.6172 54.0102C59.0916 50.2752 59.8389 46.3396 59.8389 42.3067V38.0526H63.6409C66.1919 38.0526 68.3581 36.2079 68.7916 33.6665L69.192 31.3183C69.3677 30.2889 69.0866 29.2403 68.4208 28.4414V28.4414ZM16.0145 48.2182C16.1126 43.1633 19.9237 38.9853 24.72 38.4289C22.0197 40.4225 20.3855 43.6224 20.3855 47.0457C20.3855 48.5198 20.6757 49.9393 21.2477 51.2737C20.5071 52.886 20.0889 54.6614 20.0484 56.5077C17.4923 54.5896 15.9508 51.5011 16.0145 48.2182Z" fill="#2A5A32"/>
<path d="M58.9339 30.6704C59.135 30.4669 59.2509 30.1848 59.2509 29.8971C59.2509 29.6094 59.1351 29.3273 58.9339 29.1238C58.7326 28.9204 58.4534 28.8033 58.169 28.8033C57.8833 28.8033 57.6053 28.9204 57.404 29.1238C57.2018 29.3273 57.087 29.6094 57.087 29.8971C57.087 30.1848 57.2018 30.4669 57.404 30.6704C57.6053 30.8738 57.8844 30.9908 58.169 30.9908C58.4534 30.9908 58.7316 30.8738 58.9339 30.6704Z" fill="#2A5A32"/>
<path d="M38.1768 41.6867C38.4614 41.6867 38.7394 41.5708 38.9417 41.3673C39.1429 41.1628 39.2587 40.8817 39.2587 40.5941C39.2587 40.3064 39.143 40.0242 38.9417 39.8197C38.7405 39.6162 38.4614 39.5003 38.1768 39.5003C37.8911 39.5003 37.612 39.6162 37.4109 39.8197C37.2096 40.0231 37.0948 40.3053 37.0948 40.5941C37.0948 40.8817 37.2096 41.1639 37.4109 41.3673C37.6121 41.5708 37.8913 41.6867 38.1768 41.6867Z" fill="#2A5A32"/>
</g>
<defs>
<clipPath id="clip0_41_101">
<rect width="55.3946" height="56" fill="white" transform="translate(13.8486 16)"/>
</clipPath>
</defs>
</svg>
