<svg width="93" height="93" viewBox="0 0 93 93" fill="none" xmlns="http://www.w3.org/2000/svg">
<rect x="0.503418" y="0.858887" width="92" height="92" rx="25" fill="#F2DCFF"/>
<mask id="mask0_41_126" style="mask-type:alpha" maskUnits="userSpaceOnUse" x="14" y="16" width="57" height="57">
<rect x="14.5034" y="16.8589" width="56" height="56" fill="#C4C4C4"/>
</mask>
<g mask="url(#mask0_41_126)">
</g>
<g clip-path="url(#clip0_41_126)">
<path d="M68.0102 29.8065C67.8203 29.6166 67.5593 29.5089 67.2921 29.5089C67.024 29.5089 66.763 29.6166 66.5729 29.8065C66.3841 29.9953 66.2764 30.2565 66.2764 30.5246C66.2764 30.7917 66.3841 31.0538 66.5729 31.2427C66.7629 31.4316 67.0239 31.5403 67.2921 31.5403C67.5592 31.5403 67.8203 31.4317 68.0102 31.2427C68.1992 31.0538 68.3068 30.7918 68.3068 30.5246C68.3068 30.2565 68.1992 29.9953 68.0102 29.8065Z" fill="#4E325F"/>
<path d="M44.6826 53.7272C44.4928 53.5373 44.2317 53.4295 43.9645 53.4295C43.6963 53.4295 43.4352 53.5373 43.2453 53.7272C43.0565 53.916 42.9487 54.1771 42.9487 54.4452C42.9487 54.7123 43.0565 54.9744 43.2453 55.1634C43.4352 55.3523 43.6962 55.461 43.9645 55.461C44.2316 55.461 44.4927 55.3524 44.6826 55.1634C44.8715 54.9745 44.9792 54.7124 44.9792 54.4452C44.9793 54.1771 44.8716 53.916 44.6826 53.7272Z" fill="#4E325F"/>
<path d="M70.4704 33.1797C70.1932 32.692 69.5728 32.5216 69.0854 32.7989C68.5978 33.0761 68.4273 33.6963 68.7047 34.1839C71.7217 39.4893 70.8109 46.2127 66.4896 50.5339L65.7195 51.3041C65.5334 50.8159 65.2452 50.3579 64.8524 49.9653L54.4163 39.5292C55.0988 39.1934 55.7294 38.7454 56.283 38.1918L58.2846 36.1901C58.6812 35.7935 58.6812 35.1503 58.2846 34.7537C57.8879 34.3571 57.2449 34.3571 56.8481 34.7537L54.8465 36.7554C53.9061 37.6957 52.656 38.2136 51.3262 38.2136H47.325C47.0556 38.2136 46.7973 38.3206 46.6067 38.511L43.5436 41.5742C42.634 42.4839 41.1539 42.4839 40.2443 41.5742C39.3346 40.6646 39.3346 39.1845 40.2443 38.2749L47.2375 31.2818C51.5112 27.0081 58.1831 26.0682 63.4618 28.9963C63.9524 29.2681 64.5707 29.0913 64.8428 28.6007C65.1149 28.1101 64.9377 27.4918 64.4472 27.2197C61.5356 25.605 58.1052 24.9587 54.7874 25.4006C51.6824 25.8141 48.8404 27.1142 46.5107 29.1771C43.6488 26.64 40.0054 25.2526 36.1481 25.2526C31.9692 25.2526 28.0406 26.8799 25.0856 29.8348C22.1307 32.7896 20.5034 36.7186 20.5034 40.8974C20.5034 45.0762 22.1308 49.0049 25.0856 51.9598L25.4684 52.3426C25.535 52.4092 25.609 52.4636 25.6871 52.5078C25.755 53.3865 26.1232 54.2461 26.7938 54.9166C27.5402 55.6629 28.5201 56.0359 29.5002 56.0359C29.5511 56.0359 29.6021 56.0342 29.653 56.0322C29.6509 56.0836 29.6492 56.135 29.6492 56.1867C29.6492 57.209 30.0473 58.1702 30.7703 58.8931C31.5167 59.6394 32.4965 60.0124 33.4767 60.0123C33.5276 60.0123 33.5786 60.0107 33.6295 60.0087C33.6274 60.0601 33.6257 60.1115 33.6257 60.1632C33.6257 61.1855 34.0238 62.1467 34.7468 62.8696C35.4931 63.6158 36.4732 63.9888 37.4533 63.9888C37.5048 63.9888 37.5563 63.9872 37.6078 63.9852C37.5665 65.0161 37.9379 66.0608 38.7233 66.8463C39.4463 67.5692 40.4075 67.9673 41.4298 67.9673C42.4522 67.9673 43.4134 67.5692 44.1362 66.8463L45.5557 65.4266L47.4731 67.3438C48.1961 68.0669 49.1572 68.465 50.1796 68.465C51.2019 68.465 52.1631 68.0669 52.886 67.3439C53.6808 66.5491 54.0522 65.4887 54.0004 64.4456C54.0641 64.4488 54.1281 64.4506 54.192 64.4506C55.1722 64.4506 56.1525 64.0776 56.8986 63.3313C57.6836 62.5463 58.055 61.5025 58.0142 60.472C58.0656 60.474 58.117 60.4758 58.1687 60.4758C59.191 60.4758 60.1522 60.0776 60.8751 59.3547C61.6601 58.5697 62.0315 57.5259 61.9907 56.4954C62.0421 56.4975 62.0935 56.4992 62.1452 56.4992C63.1675 56.4992 64.1287 56.1011 64.8516 55.3781C65.2187 55.011 65.4952 54.5869 65.6817 54.1342C65.7805 54.0861 65.8734 54.022 65.9556 53.9399L67.9253 51.9702C72.8918 47.0047 73.9381 39.2776 70.4704 33.1797ZM29.5003 54.0062C29.0206 54.0062 28.5695 53.8195 28.2302 53.4801C27.891 53.1409 27.7041 52.6899 27.7041 52.2101C27.7041 51.7304 27.8909 51.2793 28.2302 50.9401L29.9805 49.1897C30.3197 48.8504 30.7709 48.6636 31.2507 48.6636C31.7303 48.6636 32.1815 48.8504 32.5207 49.1897C33.2211 49.8901 33.2211 51.0295 32.5207 51.7298L30.7704 53.4802C30.4312 53.8194 29.9802 54.0062 29.5003 54.0062ZM32.207 57.4568C31.8677 57.1176 31.6809 56.6665 31.6809 56.1868C31.6809 55.707 31.8677 55.256 32.207 54.9167L33.9574 53.1663C33.9574 53.1663 33.9574 53.1663 33.9574 53.1662C34.2966 52.827 34.7477 52.6401 35.2274 52.6401C35.7071 52.6401 36.1583 52.8269 36.4975 53.1662C37.1979 53.8666 37.1979 55.006 36.4975 55.7063L34.7472 57.4567C34.0467 58.157 32.9069 58.157 32.207 57.4568ZM36.1835 61.4333C35.8441 61.0941 35.6574 60.6429 35.6574 60.1633C35.6574 59.6835 35.8441 59.2324 36.1835 58.8932L37.9339 57.1428C37.9339 57.1428 37.9339 57.1428 37.9339 57.1427C38.2731 56.8035 38.7241 56.6166 39.2039 56.6166C39.6837 56.6166 40.1347 56.8034 40.474 57.1427C41.1743 57.8432 41.1743 58.9826 40.474 59.6829L38.7235 61.4333C38.0233 62.1337 36.8838 62.1337 36.1835 61.4333ZM44.4505 63.6595L42.7001 65.4101C42.3609 65.7493 41.9098 65.9362 41.4301 65.9362C40.9504 65.9362 40.4992 65.7494 40.16 65.4101C39.4597 64.7096 39.4597 63.5702 40.16 62.8699L41.9105 61.1195C41.9105 61.1195 41.9105 61.1195 41.9105 61.1194C42.2497 60.7802 42.7007 60.5933 43.1805 60.5933C43.6602 60.5933 44.1113 60.7801 44.4505 61.1194C44.7899 61.4586 44.9766 61.9097 44.9766 62.3894C44.9767 62.8694 44.7899 63.3203 44.4505 63.6595ZM63.4159 53.9417C63.0767 54.2811 62.6256 54.4678 62.1459 54.4678C61.6661 54.4678 61.2151 54.2811 60.8758 53.9417L56.6481 49.714C56.6479 49.7138 56.6478 49.7137 56.6476 49.7135L52.6714 45.7373C52.2747 45.3407 51.6317 45.3407 51.2349 45.7373C50.8383 46.1339 50.8383 46.7771 51.2349 47.1737L59.4393 55.3779C60.1397 56.0784 60.1397 57.2178 59.4393 57.9181C59.1001 58.2574 58.649 58.4442 58.1693 58.4442C57.6895 58.4442 57.2385 58.2574 56.8993 57.9181L48.6948 49.7138C48.2981 49.3173 47.6551 49.3173 47.2583 49.7138C46.8617 50.1104 46.8617 50.7536 47.2583 51.1503L51.2341 55.126C51.2344 55.1263 51.2347 55.1267 51.235 55.127L55.4629 59.3546C56.1632 60.0551 56.1632 61.1946 55.463 61.8949C54.7625 62.5953 53.6228 62.5953 52.9228 61.8949L48.6949 57.6671C48.6167 57.589 48.5289 57.5268 48.4353 57.4795L47.2295 56.2736C46.8328 55.8771 46.1898 55.8771 45.793 56.2736C45.3964 56.6702 45.3964 57.3134 45.793 57.7101L51.4502 63.3671C52.1506 64.0676 52.1506 65.2071 51.4502 65.9073C51.111 66.2466 50.6599 66.4334 50.1802 66.4334C49.7004 66.4334 49.2494 66.2466 48.9101 65.9073L46.7574 63.7547C46.9215 63.3244 47.0082 62.8636 47.0082 62.3893C47.0082 61.367 46.6101 60.4058 45.8871 59.6829C45.1641 58.9599 44.2029 58.5618 43.1807 58.5618C43.129 58.5618 43.0776 58.5635 43.0262 58.5656C43.067 57.5351 42.6956 56.4913 41.9107 55.7063C41.1876 54.9834 40.2265 54.5852 39.2042 54.5852C39.1525 54.5852 39.1011 54.587 39.0497 54.589C39.0906 53.5585 38.7192 52.5147 37.9342 51.7297C37.2112 51.0068 36.25 50.6087 35.2277 50.6087C35.1761 50.6087 35.1247 50.6104 35.0733 50.6124C35.1141 49.582 34.7427 48.5381 33.9577 47.7531C32.4653 46.2608 30.0369 46.2609 28.5445 47.7531L26.7942 49.5035C26.5734 49.7243 26.3862 49.9659 26.2306 50.2216C23.8448 47.6875 22.5353 44.3931 22.5353 40.8972C22.5353 37.2609 23.9513 33.8422 26.5226 31.2711C29.0938 28.6999 32.5126 27.2838 36.1487 27.2838C39.4532 27.2838 42.5778 28.4534 45.0501 30.5966L38.8083 36.8383C37.9841 37.6627 37.5301 38.7587 37.5301 39.9244C37.5301 41.0902 37.9841 42.1862 38.8083 43.0106C39.6592 43.8614 40.7769 44.2868 41.8945 44.2868C43.0121 44.2868 44.1298 43.8615 44.9807 43.0106L47.7464 40.2448H51.3268C51.6225 40.2448 51.9149 40.2246 52.2037 40.1888L63.4165 51.4014C64.1162 52.102 64.1162 53.2416 63.4159 53.9417Z" fill="#4E325F"/>
</g>
<defs>
<clipPath id="clip0_41_126">
<rect width="52" height="52" fill="white" transform="translate(20.5034 20.8589)"/>
</clipPath>
</defs>
</svg>
