<svg width="13" height="13" viewBox="0 0 13 13" fill="none" xmlns="http://www.w3.org/2000/svg">
<path d="M1.74631 11.6262L1.9233 11.8032L2.10007 11.626L6.6907 7.0245L11.2813 11.626L11.4581 11.8032L11.6351 11.6262L11.856 11.4053L12.0326 11.2287L11.8562 11.052L7.26443 6.44938L11.8562 1.84666L12.0327 1.66976L11.8559 1.4932L11.635 1.27256L11.458 1.09583L11.2813 1.27289L6.6907 5.87429L2.10007 1.27289L1.92342 1.09583L1.74643 1.27256L1.52549 1.4932L1.34868 1.66976L1.52516 1.84666L6.11697 6.44938L1.52516 11.052L1.3488 11.2287L1.52537 11.4053L1.74631 11.6262Z" fill="#f52456" stroke="#f52456" stroke-width="0.5"/>
</svg>
