<svg width="23" height="24" viewBox="0 0 23 24" fill="none" xmlns="http://www.w3.org/2000/svg">
<path d="M22.8596 22.2806L16.1783 15.5993C17.4455 14.0348 18.2084 12.0458 18.2084 9.88032C18.2084 4.86029 14.1242 0.776123 9.10415 0.776123C4.08413 0.776123 0 4.86029 0 9.88032C0 14.9004 4.08417 18.9845 9.1042 18.9845C11.2697 18.9845 13.2587 18.2217 14.8232 16.9545L21.5045 23.6358C21.6917 23.8229 21.995 23.8229 22.1822 23.6358L22.8597 22.9583C23.0468 22.7711 23.0468 22.4677 22.8596 22.2806ZM9.1042 17.0678C5.14078 17.0678 1.91669 13.8437 1.91669 9.88032C1.91669 5.9169 5.14078 2.69281 9.1042 2.69281C13.0676 2.69281 16.2917 5.9169 16.2917 9.88032C16.2917 13.8437 13.0676 17.0678 9.1042 17.0678Z" fill="white"/>
</svg>
