<svg width="28" height="29" viewBox="0 0 28 29" fill="none" xmlns="http://www.w3.org/2000/svg">
<path d="M3.46889 28.1929C10.4895 28.1929 17.5145 28.1929 24.535 28.1929C24.655 28.1929 24.7748 28.1841 24.8958 28.1709C26.4379 27.9905 27.6367 26.641 27.6367 25.0901C27.6367 18.0695 27.6367 11.0456 27.6367 4.02506C27.6367 3.93483 27.6411 3.84468 27.6279 3.75453C27.4607 2.12995 26.1155 0.914551 24.4788 0.914551C17.4968 0.914551 10.5148 0.914551 3.52933 0.918967C3.34012 0.918967 3.14657 0.931004 2.96177 0.96625C1.41539 1.26215 0.362793 2.54242 0.362793 4.11521V14.5598C0.362793 18.0311 0.362793 21.5067 0.362793 24.979C0.362793 25.155 0.375956 25.3353 0.401329 25.5113C0.603622 27.0193 1.94442 28.1929 3.46889 28.1929ZM19.2501 5.11178C19.2545 4.5101 19.7186 4.06801 20.3235 4.0636C21.3596 4.0636 22.3902 4.0636 23.4263 4.0636C24.0401 4.06801 24.4954 4.51893 24.4954 5.13819C24.4998 6.16879 24.4998 7.20381 24.4954 8.23554C24.4954 8.85809 24.0401 9.31013 23.4175 9.31013H21.871C21.3552 9.31013 20.835 9.31013 20.3158 9.31013C19.7186 9.31013 19.2545 8.86251 19.2501 8.26524C19.2456 7.21256 19.2456 6.16438 19.2501 5.11178ZM13.9992 9.31005C16.8996 9.31005 19.2456 11.6506 19.2501 14.551C19.2501 17.4515 16.9084 19.7975 14.0079 19.8019C11.1042 19.8019 8.75379 17.4514 8.7582 14.5466C8.76262 11.6594 11.1086 9.31005 13.9992 9.31005ZM3.51175 12.5877V12.4678H5.87977C5.35075 14.6027 5.59158 16.6474 6.63984 18.581C7.40424 19.9943 8.49971 21.0898 9.89662 21.8807C12.6595 23.4403 16.0967 23.2896 18.7254 21.4946C20.1827 20.497 21.2309 19.1695 21.8579 17.5153C22.4803 15.8654 22.5585 14.1814 22.1241 12.4635H24.4954C24.4954 12.5108 24.4954 12.5537 24.4954 12.601V23.9046C24.4954 24.614 24.0664 25.0474 23.357 25.0474H5.87536C5.45406 25.0474 5.03726 25.0518 4.61596 25.0474C3.95929 25.0474 3.51167 24.6009 3.51167 23.9431C3.51175 20.1582 3.51175 16.3724 3.51175 12.5877Z" fill="white"/>
</svg>
