<svg width="28" height="25" viewBox="0 0 28 25" fill="none" xmlns="http://www.w3.org/2000/svg">
<path d="M0.842672 12.0664L7.12821 14.4123L9.56109 22.2365C9.7168 22.7374 10.3296 22.9226 10.7361 22.5901L14.2399 19.734C14.6071 19.4345 15.1303 19.4198 15.5139 19.6983L21.8334 24.2864C22.2684 24.6024 22.8849 24.3642 22.9939 23.8385L27.6233 1.57103C27.7423 0.996714 27.1782 0.517654 26.6314 0.729212L0.835398 10.6806C0.19873 10.9259 0.204185 11.8273 0.842672 12.0664ZM9.16898 13.1636L21.4532 5.59784C21.6739 5.46231 21.9011 5.76081 21.7114 5.93669L11.5735 15.3604C11.217 15.6919 10.9872 16.136 10.9221 16.6179L10.5769 19.1772C10.5309 19.5188 10.0512 19.5526 9.95667 19.2219L8.62852 14.5551C8.47654 14.0229 8.69814 13.4542 9.16898 13.1636Z" fill="white"/>
</svg>
