<svg width="30" height="29" viewBox="0 0 30 29" fill="none" xmlns="http://www.w3.org/2000/svg">
<g clip-path="url(#clip0_67_48)">
<path d="M19.8961 15.3695C18.5911 13.3337 16.3686 12.1182 13.9508 12.1182C11.533 12.1182 9.31047 13.3337 8.00575 15.3695L4.86131 20.2748C4.33959 21.0886 4.09887 22.0289 4.16503 22.9934C4.23118 23.958 4.59824 24.8563 5.22637 25.5918C5.85495 26.3265 6.68553 26.8288 7.62829 27.0443C8.57105 27.2598 9.53748 27.1677 10.4229 26.7786L10.4822 26.7522C12.7102 25.7924 15.2562 25.8013 17.4784 26.7786C18.0517 27.0306 18.6591 27.158 19.2719 27.158C19.6051 27.158 19.9403 27.1202 20.2724 27.0445C21.2152 26.8292 22.0458 26.327 22.6746 25.592C23.3029 24.8572 23.6702 23.9587 23.7366 22.9938C23.8029 22.0289 23.5622 21.0888 23.0405 20.2746L19.8961 15.3695Z" fill="#F52456"/>
<path d="M5.7084 15.3631C6.64386 15.0038 7.35452 14.25 7.70941 13.2404C8.04726 12.2797 8.01961 11.1951 7.63131 10.1862C7.24279 9.17797 6.53611 8.35491 5.64137 7.86838C4.70149 7.3575 3.6689 7.27431 2.73499 7.63429C0.856118 8.35668 -0.00610262 10.6785 0.813195 12.8112C1.46766 14.5086 2.99408 15.5801 4.53732 15.5801C4.93137 15.5801 5.32652 15.5102 5.7084 15.3631Z" fill="#F52456"/>
<path d="M11.8096 11.52C14.1584 11.52 16.0694 9.34283 16.0694 6.66678C16.0694 3.99007 14.1584 1.8125 11.8096 1.8125C9.46103 1.8125 7.55029 3.99007 7.55029 6.66678C7.55029 9.34283 9.46103 11.52 11.8096 11.52Z" fill="#F52456"/>
<path d="M19.1663 12.7123H19.1665C19.5278 12.8322 19.8964 12.8895 20.2634 12.8895C21.9764 12.8895 23.6457 11.6427 24.2827 9.7267C24.6496 8.62375 24.6254 7.45753 24.2148 6.44309C23.7851 5.38108 22.9888 4.61023 21.9724 4.27238C20.9557 3.93453 19.8563 4.07547 18.8764 4.66887C17.9403 5.23571 17.223 6.15546 16.8566 7.2584C16.0833 9.58509 17.1194 12.0317 19.1663 12.7123Z" fill="#F52456"/>
<path d="M28.1371 12.1459L28.1364 12.1452C26.5166 10.9487 24.0941 11.4673 22.7359 13.3019C21.3789 15.1374 21.5911 17.6051 23.2084 18.8025C23.7983 19.2394 24.4953 19.4483 25.2086 19.4483C26.4518 19.4483 27.7452 18.8138 28.6099 17.6469C29.9666 15.8114 29.7546 13.3437 28.1371 12.1459Z" fill="#F52456"/>
</g>
<defs>
<clipPath id="clip0_67_48">
<rect width="29" height="29" fill="white" transform="translate(0.503418)"/>
</clipPath>
</defs>
</svg>
